<svg width="109" height="18" viewBox="0 0 109 18" fill="none" xmlns="http://www.w3.org/2000/svg">
<path d="M9.82966 14.2982H4.35834L3.31816 17.7686H0L5.63775 0.92545H8.52944L14.1984 17.7686H10.8802L9.82966 14.2982ZM5.20088 11.4871H8.98712L7.0836 5.18252L5.20088 11.4871Z" fill="white"/>
<path d="M17.683 5.25193L17.7766 6.69794C18.581 5.57969 19.6593 5.02057 21.0115 5.02057C22.2043 5.02057 23.0919 5.41003 23.6744 6.18895C24.2569 6.96787 24.5551 8.13239 24.5689 9.68252V17.7686H21.5628V9.7635C21.5628 9.05398 21.4241 8.54113 21.1468 8.22494C20.8694 7.90103 20.4082 7.73907 19.7633 7.73907C18.9173 7.73907 18.2828 8.1401 17.8598 8.94216V17.7686H14.8537V5.25193H17.683Z" fill="white"/>
<path d="M36.999 11.626C36.999 13.6311 36.6142 15.1967 35.8444 16.3226C35.0747 17.4409 33.9999 18 32.6199 18C31.3994 18 30.4251 17.4794 29.697 16.4383L29.5618 17.7686H26.8573V0H29.8634V6.37404C30.5569 5.47172 31.4688 5.02057 32.5991 5.02057C33.9721 5.02057 35.047 5.58355 35.8236 6.70951C36.6072 7.82776 36.999 9.40488 36.999 11.4409V11.626ZM33.9929 11.383C33.9929 10.1183 33.8126 9.19666 33.452 8.61825C33.0915 8.03213 32.554 7.73907 31.8398 7.73907C30.8828 7.73907 30.224 8.17481 29.8634 9.04627V13.9859C30.231 14.865 30.8967 15.3046 31.8606 15.3046C32.8314 15.3046 33.4694 14.7725 33.7745 13.7082C33.9201 13.1992 33.9929 12.4242 33.9929 11.383Z" fill="white"/>
<path d="M45.1852 8.38689C44.7761 8.32519 44.4155 8.29434 44.1034 8.29434C42.9662 8.29434 42.2207 8.72237 41.8671 9.57841V17.7686H38.861V5.25193H41.7006L41.7839 6.74422C42.3872 5.59512 43.2228 5.02057 44.2907 5.02057C44.6235 5.02057 44.9356 5.07069 45.2268 5.17095L45.1852 8.38689Z" fill="white"/>
<path d="M52.8513 17.7686C52.7126 17.4679 52.6121 17.0938 52.5497 16.6465C51.8215 17.5488 50.875 18 49.71 18C48.6074 18 47.692 17.6452 46.9639 16.9357C46.2427 16.2262 45.8821 15.3316 45.8821 14.2519C45.8821 12.9254 46.3225 11.9075 47.2032 11.1979C48.0908 10.4884 49.3702 10.1298 51.0414 10.1221H52.4248V9.40488C52.4248 8.82648 52.2896 8.36375 52.0192 8.01671C51.7557 7.66967 51.3361 7.49614 50.7606 7.49614C50.2543 7.49614 49.8556 7.63111 49.5644 7.90103C49.2801 8.17095 49.1379 8.54113 49.1379 9.01157H46.1318C46.1318 8.28663 46.3329 7.61568 46.7351 6.99871C47.1373 6.38175 47.7059 5.89974 48.441 5.5527C49.176 5.19794 50.0012 5.02057 50.9166 5.02057C52.3035 5.02057 53.4026 5.41003 54.214 6.18895C55.0322 6.96015 55.4414 8.04756 55.4414 9.45116V14.8766C55.4483 16.0643 55.5974 16.9627 55.8886 17.572V17.7686H52.8513ZM50.3653 15.4434C50.8091 15.4434 51.2182 15.3355 51.5927 15.1195C51.9672 14.8959 52.2446 14.599 52.4248 14.2288V12.0771H51.3015C49.7967 12.0771 48.9957 12.6555 48.8987 13.8123L48.8883 14.009C48.8883 14.4254 49.02 14.7686 49.2835 15.0386C49.547 15.3085 49.9076 15.4434 50.3653 15.4434Z" fill="white"/>
<path d="M70.2639 17.7686H67.1433L61.0687 6.68638V17.7686H57.9482V0.92545H61.0687L67.1537 12.0308V0.92545H70.2639V17.7686Z" fill="white"/>
<path d="M77.9716 18C76.3211 18 74.9759 17.437 73.9357 16.3111C72.9024 15.1851 72.3858 13.6851 72.3858 11.8111V11.4871C72.3858 10.2301 72.6043 9.10797 73.0411 8.12082C73.478 7.12596 74.0952 6.36247 74.8926 5.83033C75.697 5.29049 76.6124 5.02057 77.6387 5.02057C79.1782 5.02057 80.3882 5.56041 81.2689 6.6401C82.1565 7.71979 82.6003 9.25064 82.6003 11.2326V12.5977H75.4335C75.5306 13.4152 75.8219 14.0707 76.3073 14.5643C76.7996 15.0578 77.4203 15.3046 78.1692 15.3046C79.3273 15.3046 80.2322 14.838 80.8841 13.9049L82.3611 15.7442C81.9104 16.4537 81.3001 17.009 80.5304 17.41C79.7607 17.8033 78.9077 18 77.9716 18ZM77.6283 7.72751C77.0319 7.72751 76.5465 7.95116 76.1721 8.39846C75.8045 8.84576 75.5688 9.48586 75.4647 10.3188H79.6462V10.0527C79.6324 9.31234 79.4521 8.74165 79.1054 8.34062C78.7586 7.93188 78.2663 7.72751 77.6283 7.72751Z" fill="white"/>
<path d="M94.1047 13.2224L95.5817 5.25193H98.4838L95.6129 17.7686H93.0957L90.9634 9.89075L88.831 17.7686H86.3242L83.4533 5.25193H86.3554L87.822 13.2108L89.8816 5.25193H92.0555L94.1047 13.2224Z" fill="white"/>
<path d="M106.077 14.3098C106.077 13.901 105.893 13.581 105.526 13.3496C105.165 13.1105 104.583 12.8985 103.778 12.7134C101.102 12.0887 99.7632 10.8239 99.7632 8.91902C99.7632 7.80848 100.176 6.88303 101.001 6.14267C101.833 5.3946 102.918 5.02057 104.257 5.02057C105.685 5.02057 106.826 5.3946 107.679 6.14267C108.539 6.89075 108.969 7.86247 108.969 9.05784H105.963C105.963 8.57969 105.824 8.18638 105.547 7.87789C105.269 7.5617 104.836 7.4036 104.246 7.4036C103.74 7.4036 103.348 7.53085 103.071 7.78535C102.794 8.03985 102.655 8.36375 102.655 8.75707C102.655 9.12725 102.811 9.42802 103.123 9.65938C103.442 9.88303 103.976 10.0797 104.725 10.2494C105.474 10.4113 106.105 10.5964 106.618 10.8046C108.206 11.4524 109 12.5746 109 14.171C109 15.3123 108.56 16.2378 107.679 16.9473C106.798 17.6491 105.661 18 104.267 18C103.324 18 102.485 17.8149 101.75 17.4447C101.022 17.0668 100.45 16.554 100.034 15.9062C99.6176 15.2506 99.4096 14.545 99.4096 13.7892H102.26C102.287 14.383 102.485 14.838 102.853 15.1542C103.22 15.4704 103.712 15.6285 104.33 15.6285C104.905 15.6285 105.339 15.509 105.63 15.2699C105.928 15.0231 106.077 14.7031 106.077 14.3098Z" fill="white"/>
</svg>
